<?xml version="1.0" encoding="UTF-8"?><svg id="Layer_2" xmlns="http://www.w3.org/2000/svg" viewBox="0 0 101.683825 90.04394"><defs><style>.cls-1,.cls-2{fill:none;stroke-width:3.5px;}.cls-1,.cls-3{stroke:#034ba6;}.cls-2,.cls-4{stroke:#cb9d08;}.cls-3,.cls-4{fill:#fff;stroke-width:3.25px;}</style></defs><g id="Icons"><g><g><path class="cls-3" d="M89.730734,81.157411h10.328091v-11.406949c0-3.965864-14.015285-9.994934-29.713778-10.419217-6.592179-6.25411-17.336737-10.419387-23.759881-10.419387h-11.87994c-7.07145,0-17.536998,5.091403-24.756099,10.182806H4.54019c-1.690346,5.091403-3.549556,13.717768-2.704553,17.09829,.845173,3.380692,3.211657,5.186782,6.761222,5.186782s80.880334-.222325,81.133876-.222325Z"/><polyline class="cls-3" points="63.55651 61.373236 60.755729 62.488933 28.47827 62.488933 23.687777 57.51582"/><circle class="cls-4" cx="79.693212" cy="79.933268" r="8.485672"/><circle class="cls-4" cx="20.293509" cy="79.933268" r="8.485672"/></g><path class="cls-2" d="M63.785778,19.96595c0,10.059734-8.066706,18.219731-18.023695,18.219731-9.955033,0-18.021413-8.159998-18.021413-18.219731C27.740669,9.909346,35.80705,1.75,45.762083,1.75c9.956989,0,18.023695,8.159346,18.023695,18.21595Z"/><g><path class="cls-1" d="M50.21388,14.530841v-1.040943c0-1.810682-1.450293-3.274926-3.236722-3.274926h-2.600435c-1.787408,0-3.238026,1.464244-3.238026,3.274926v2.228311c0,1.034554,.791383,1.884481,1.832,2.552974l4.93664,1.910558"/><path class="cls-1" d="M41.138697,24.148107v1.043486c0,1.807487,1.450618,3.272383,3.238026,3.272383h2.600435c1.78643,0,3.236722-1.464896,3.236722-3.272383v-2.230853c0-1.033902-.843212-1.9367-1.887023-2.607084l-4.709637-1.833565"/><line class="cls-1" x1="45.873498" y1="5.732926" x2="45.873498" y2="10.623018"/><line class="cls-1" x1="45.873498" y1="27.673245" x2="45.873498" y2="32.564054"/></g></g></g></svg>