<?xml version="1.0" encoding="utf-8"?>
<!-- Generator: Adobe Illustrator 26.5.0, SVG Export Plug-In . SVG Version: 6.00 Build 0)  -->
<svg version="1.1" id="Layer_2_00000094589864973793701350000005895475108318619316_"
	 xmlns="http://www.w3.org/2000/svg" xmlns:xlink="http://www.w3.org/1999/xlink" x="0px" y="0px" viewBox="0 0 103.5 112.3"
	 style="enable-background:new 0 0 103.5 112.3;" xml:space="preserve">
<style type="text/css">
	.st0{fill:none;stroke:#CB9D08;stroke-width:4;}
	.st1{fill:none;stroke:#034BA6;stroke-width:4;}
	.st2{fill:#CB9D08;}
</style>
<g id="Icons">
	<g>
		<g>
			<line class="st0" x1="58.2" y1="38.3" x2="58.2" y2="65.5"/>
			<g>
				<path class="st0" d="M78.4,54.3c-3,3-7.6,3.8-12.3,2.5c-1.2-4.7-0.5-9.2,2.6-12.2S76.3,40.8,81,42
					C82.2,46.7,81.5,51.2,78.4,54.3L78.4,54.3z"/>
				<line class="st0" x1="67.2" y1="55.7" x2="58.7" y2="64.1"/>
			</g>
			<g>
				<path class="st0" d="M38.4,54.3c3,3,7.6,3.8,12.3,2.5c1.2-4.7,0.5-9.2-2.6-12.2s-7.6-3.8-12.3-2.5
					C34.6,46.7,35.4,51.2,38.4,54.3L38.4,54.3z"/>
				<line class="st0" x1="49.6" y1="55.7" x2="58.1" y2="64.1"/>
			</g>
			<path class="st1" d="M75.6,19.1c0,9.4-7.7,17.1-17.2,17.1s-17.2-7.7-17.2-17.1S48.8,2,58.3,2S75.6,9.7,75.6,19.1L75.6,19.1z"/>
			<path class="st1" d="M84.3,69.6l3.1-5.9c-0.1,0-0.2-0.1-0.3-0.1l-2.3-0.7c-3.8-1.2-7.7,1.5-9.5,5.1l-6.8,10.4"/>
			<path class="st1" d="M25.5,99.1h14.7L77,85.5l23.6-16.1c-0.1-0.1-0.1-0.2-0.2-0.2l-1.7-1.7c-2.8-2.8-7.5-2.1-10.8,0.2l-14,8
				L68.3,79H44.7v-0.1l14.7,0c3.8-0.1,6.7-4.3,6.6-8c0,0-0.1-0.8-0.1-0.9H39.7l-10.1,8.8h-4.1"/>
			<polyline class="st1" points="0,73.3 19.4,73.3 19.4,110.3 9.4,110.3 			"/>
		</g>
		<path class="st2" d="M57.8,29.3V27c-1.4,0-2.8-0.5-3.6-1l0.6-1.6c0.8,0.6,2.1,1,3.4,1c1.7,0,2.8-1,2.8-2.3s-0.9-2.1-2.7-2.8
			c-2.4-1-3.9-2-3.9-4.1s1.4-3.5,3.6-3.8V9.9h1.5v2.3c1.4,0.1,2.4,0.4,3.1,0.8l-0.6,1.6c-0.5-0.3-1.5-0.8-3-0.8
			c-1.8,0-2.5,1.1-2.5,2c0,1.2,0.9,1.9,2.9,2.7c2.4,1,3.7,2.2,3.7,4.3c0,1.9-1.3,3.6-3.7,4v2.5L57.8,29.3L57.8,29.3z"/>
	</g>
</g>
</svg>
