<?xml version="1.0" encoding="utf-8"?>
<!-- Generator: Adobe Illustrator 26.5.0, SVG Export Plug-In . SVG Version: 6.00 Build 0)  -->
<svg version="1.1" id="Layer_2_00000098220004244540911640000000676293084818154420_"
	 xmlns="http://www.w3.org/2000/svg" xmlns:xlink="http://www.w3.org/1999/xlink" x="0px" y="0px" viewBox="0 0 97.3 111.6"
	 style="enable-background:new 0 0 97.3 111.6;" xml:space="preserve">
<style type="text/css">
	.st0{fill:none;stroke:#034BA6;stroke-width:4;}
	.st1{fill:none;stroke:#CB9D08;stroke-width:4;}
</style>
<g id="Icons">
	<g>
		<g>
			<path class="st0" d="M40.8,78.5h-25c-9,0-13.7-7.1-13.7-16V51.4"/>
			<path class="st0" d="M95.2,51.3v11.1c0,8.9-4.7,16.1-13.7,16.1H57.1"/>
		</g>
		<rect x="2" y="46.7" class="st0" width="93.3" height="63"/>
		<polyline class="st1" points="67.4,34.7 69.8,34.7 69.8,45.5 		"/>
		<polyline class="st1" points="27.5,45.5 27.5,34.7 32.2,34.7 		"/>
		<path class="st0" d="M36.5,0v7.1c-2.3,1.7-3.8,4.4-3.8,7.5v16.3l0.2,3.6c0,1.9,1.6,3.5,3.5,3.5s3.5-0.7,3.5-2.6v0.9
			c0,1.9,1.6,3.5,3.5,3.5s3.5-1.6,3.5-3.5v1.7c0,1.9,1.6,3.5,3.5,3.5s3.5-1.6,3.5-3.5v-2c0,1.7,1.7,3.4,3.7,3.4s3.6-1.6,3.6-3.6
			l0-14.9l0.1,1.7v7.2c0,2.9,2.4,5.3,5.4,5.3h1.8c0.1,0-0.1,0,0,0v-6.7c0,0,0,0,0,0v-8.9L58.4,7.8c-1.2-1.1-2.6-1.9-4.3-2.3V0"/>
		<g>
			<g>
				<line class="st1" x1="53" y1="68.4" x2="53" y2="47"/>
				<line class="st1" x1="44.3" y1="68.4" x2="44.3" y2="47"/>
			</g>
			<g>
				<line class="st1" x1="53" y1="108.9" x2="53" y2="88.5"/>
				<line class="st1" x1="44.3" y1="108.9" x2="44.3" y2="88.5"/>
			</g>
			<path class="st1" d="M55.7,87.2c0,1-0.8,1.8-1.8,1.8H43.4c-1,0-1.8-0.8-1.8-1.8V70.7c0-1,0.8-1.8,1.8-1.8h10.5
				c1,0,1.8,0.8,1.8,1.8C55.7,70.7,55.7,87.2,55.7,87.2z"/>
			<line class="st1" x1="48.7" y1="87.9" x2="48.7" y2="82"/>
		</g>
	</g>
</g>
</svg>
