<?xml version="1.0" encoding="utf-8"?>
<!-- Generator: Adobe Illustrator 26.5.0, SVG Export Plug-In . SVG Version: 6.00 Build 0)  -->
<svg version="1.1" id="Layer_2_00000173875217911782796910000014478551214649535124_"
	 xmlns="http://www.w3.org/2000/svg" xmlns:xlink="http://www.w3.org/1999/xlink" x="0px" y="0px" viewBox="0 0 108.6 90.6"
	 style="enable-background:new 0 0 108.6 90.6;" xml:space="preserve">
<style type="text/css">
	.st0{fill:none;stroke:#034BA6;stroke-width:4;}
	.st1{fill:#CB9D08;}
	.st2{fill:none;stroke:#CB9D08;stroke-width:4;}
	.st3{fill:#034BA6;}
</style>
<g id="Icons">
	<g>
		<g>
			<polyline class="st0" points="102.6,52.6 102.6,88.6 6.4,88.6 6.4,53 			"/>
			<polyline class="st0" points="6.4,36.5 6.4,2 102.6,2 102.6,36.2 			"/>
			<g>
				<path class="st1" d="M21.4,13.7v6h-5v-5.9L21.4,13.7 M25.1,10.1H12.8v13.3h12.3L25.1,10.1C25.1,10.1,25.1,10.1,25.1,10.1z"/>
				<path class="st1" d="M39.2,13.7v6h-5v-5.9L39.2,13.7 M42.8,10.1H30.5v13.3h12.3V10.1C42.8,10.1,42.8,10.1,42.8,10.1z"/>
				<path class="st1" d="M57,13.7v6h-5v-5.9L57,13.7 M60.6,10.1H48.3v13.3h12.3V10.1C60.6,10.1,60.6,10.1,60.6,10.1z"/>
				<path class="st1" d="M74.8,13.7v6h-5v-5.9L74.8,13.7 M78.4,10.1H66.1v13.3h12.3V10.1C78.4,10.1,78.4,10.1,78.4,10.1z"/>
				<path class="st1" d="M92.6,13.7v6h-5v-5.9L92.6,13.7 M96.2,10.1H83.9v13.3h12.3V10.1C96.2,10.1,96.2,10.1,96.2,10.1z"/>
			</g>
			<path class="st1" d="M37.6,63.9v13.9h-21V63.9H37.6 M41.2,60.2H13v21.2h28.3V60.2C41.2,60.2,41.2,60.2,41.2,60.2z"/>
			<path class="st1" d="M92.6,63.9v13.9h-21V63.9H92.6 M96.2,60.2H67.9v21.2h28.3V60.2C96.2,60.2,96.2,60.2,96.2,60.2z"/>
			<polyline class="st2" points="47.4,86.8 47.4,62.2 61.6,62.2 61.6,86.8 			"/>
			<line class="st0" x1="1.8" y1="2" x2="107.2" y2="2"/>
		</g>
		<polyline class="st0" points="1.4,41.8 13.6,30 94.9,30 107.2,41.8 		"/>
		<path class="st3" d="M104.5,44.2v1c0,3.7-3,6.7-6.7,6.7c-2.8,0-5.2-1.8-6.2-4.3c-1,2.5-3.4,4.3-6.2,4.3s-5.2-1.8-6.2-4.3
			c-1,2.5-3.4,4.3-6.2,4.3s-5.2-1.8-6.2-4.3c-1,2.5-3.4,4.3-6.2,4.3s-5.2-1.8-6.2-4.3c-1,2.5-3.4,4.3-6.2,4.3s-5.2-1.8-6.2-4.3
			c-1,2.5-3.4,4.3-6.2,4.3s-5.2-1.8-6.2-4.3c-1,2.5-3.4,4.3-6.2,4.3s-5.2-1.8-6.2-4.3c-1,2.5-3.4,4.3-6.2,4.3C7,52,4,49,4,45.2v-1
			H104.5 M108.2,40.6H0.4v4.7C0.4,51,5,55.6,10.7,55.6c2.3,0,4.5-0.8,6.2-2.1c1.8,1.3,3.9,2.1,6.2,2.1s4.5-0.8,6.2-2.1
			c1.8,1.3,3.9,2.1,6.2,2.1s4.5-0.8,6.2-2.1c1.8,1.3,3.9,2.1,6.2,2.1s4.5-0.8,6.2-2.1c1.8,1.3,3.9,2.1,6.2,2.1s4.5-0.8,6.2-2.1
			c1.8,1.3,3.9,2.1,6.2,2.1s4.5-0.8,6.2-2.1c1.8,1.3,3.9,2.1,6.2,2.1s4.5-0.8,6.2-2.1c1.8,1.3,3.9,2.1,6.2,2.1
			c5.7,0,10.3-4.7,10.3-10.4L108.2,40.6L108.2,40.6L108.2,40.6z"/>
	</g>
</g>
</svg>
