<?xml version="1.0" encoding="UTF-8"?><svg id="Layer_2" xmlns="http://www.w3.org/2000/svg" viewBox="0 0 116.911796 87.516485"><defs><style>.cls-1{stroke:#034ba6;}.cls-1,.cls-2{stroke-width:3.5px;}.cls-1,.cls-3{fill:none;}.cls-2{fill:#fff;}.cls-2,.cls-3{stroke:#cb9d08;}.cls-3{stroke-width:4px;}</style></defs><g id="Icons"><g><polygon class="cls-1" points="113.144407 21.759697 41.483651 59.34848 3.767389 39.564919 75.428145 1.976136 113.144407 21.759697"/><polyline class="cls-1" points="113.144407 30.490379 41.483651 68.078984 3.767389 48.295601"/><polyline class="cls-1" points="113.144407 39.220883 41.483651 76.809666 3.767389 57.026106"/><polyline class="cls-1" points="113.144407 47.951566 41.483651 85.540349 3.767389 65.756788"/><path class="cls-1" d="M93.029079,20.440805l-15.086363-7.913353c-2.514572,1.318892-5.460299,1.092558-7.543359,0L23.858893,36.93958c2.514394,1.318892,2.103862,2.853096,.023825,3.944231l15.08654,7.913353c2.07986-1.090957,5.004963-1.306269,7.519357,.012624l46.540465-24.412307c-2.08306-1.092558-2.514394-2.637784,0-3.956677Z"/><line class="cls-3" x1="76.235537" y1="19.755756" x2="76.235537" y2="23.31168"/><line class="cls-3" x1="40.676298" y1="37.535376" x2="40.676298" y2="41.091299"/><polygon class="cls-2" points="67.345727 45.443039 28.230564 23.31168 46.010184 14.42187 86.903309 35.709409 86.903309 64.204805 67.345727 74.735852 67.345727 45.443039"/></g></g></svg>