<?xml version="1.0" encoding="UTF-8"?><svg id="Layer_2" xmlns="http://www.w3.org/2000/svg" viewBox="0 0 94.064668 98.638712"><defs><style>.cls-1{fill:#e9eaeb;}.cls-2,.cls-3{fill:#fff;}.cls-2,.cls-3,.cls-4{stroke-width:3.25px;}.cls-2,.cls-4{stroke:#034ba6;}.cls-3{stroke:#cb9d08;}.cls-5{stroke:#bcc0c4;stroke-miterlimit:10;stroke-width:2px;}.cls-5,.cls-4{fill:none;}</style></defs><g id="Icons"><g><g><rect class="cls-1" x="34.165917" y="20.523381" width="32.538969" height="11.388639"/><polygon class="cls-3" points="52.06235 10.761691 52.06235 20.523381 66.704886 20.523381 66.704886 31.91202 84.601319 31.91202 84.601319 10.761691 52.06235 10.761691"/><polyline class="cls-5" points="74.839628 5.880845 74.839628 1 40.673711 1 40.673711 15.642536"/><polyline class="cls-2" points="66.704886 31.91202 66.704886 20.523381 34.165917 20.523381 34.165917 31.91202"/></g><polyline class="cls-4" points="37.419814 79.093525 16.269484 30.285072 0 30.285072"/><path class="cls-4" d="M26.031175,36.792866h63.450989c1.716086,0,3.392331,1.865947,2.855601,3.495824l-8.307505,25.227137c-1.069737,3.248203-4.103164,5.442956-7.52301,5.442956H34.165917"/><g><line class="cls-2" x1="43.927608" y1="41.673711" x2="43.927608" y2="64.450989"/><line class="cls-2" x1="56.943196" y1="41.673711" x2="56.943196" y2="64.450989"/><line class="cls-2" x1="69.958783" y1="41.673711" x2="69.958783" y2="64.450989"/><line class="cls-2" x1="78.093525" y1="57.943196" x2="37.419814" y2="57.943196"/><line class="cls-2" x1="81.347422" y1="48.181505" x2="34.165917" y2="48.181505"/></g><path class="cls-4" d="M29.573742,60.987205s6.524159,15.25916,7.846072,18.10632c1.018127,2.193127,2.84716,3.253897,4.880845,3.253897h37.419814"/><circle class="cls-3" cx="39.058626" cy="92.12099" r="4.892716"/><path class="cls-3" d="M81.475951,92.12099c0,2.702199-2.190542,4.892722-4.89274,4.892722-2.702036,0-4.892559-2.190523-4.892559-4.892722s2.190523-4.892722,4.892559-4.892722c2.702199,0,4.89274,2.190523,4.89274,4.892722Z"/></g></g></svg>