<?xml version="1.0" encoding="utf-8"?>
<!-- Generator: Adobe Illustrator 26.5.0, SVG Export Plug-In . SVG Version: 6.00 Build 0)  -->
<svg version="1.1" id="Layer_1" xmlns="http://www.w3.org/2000/svg" xmlns:xlink="http://www.w3.org/1999/xlink" x="0px" y="0px"
	 viewBox="0 0 3265.6 1155.8" style="enable-background:new 0 0 3265.6 1155.8;" xml:space="preserve">
<style type="text/css">
	.st0{opacity:7.000000e-02;fill:#CB9D08;enable-background:new    ;}
</style>
<polygon class="st0" points="798.2,828.4 805,855 832.6,853.7 809.3,868.6 819.5,894.5 798.3,876.8 777,894.5 786.6,868.6 
	763.9,853.7 791.1,855 "/>
<polygon class="st0" points="602.2,828.4 609,855 636.6,853.7 613.3,868.6 623.4,894.5 602.3,876.8 580.9,894.5 590.6,868.6 
	567.8,853.7 595,855 "/>
<polygon class="st0" points="406.1,828.4 412.9,855 440.5,853.7 417.2,868.6 427.4,894.5 406.2,876.8 384.9,894.5 394.5,868.6 
	371.7,853.7 398.9,855 "/>
<polygon class="st0" points="896.3,941.9 903.1,968.5 930.7,967.2 907.4,982.1 917.5,1008.1 896.4,990.3 875,1008.1 884.7,982.1 
	861.9,967.2 889.1,968.5 "/>
<polygon class="st0" points="1092.3,941.9 1099.1,968.5 1126.7,967.2 1103.4,982.1 1113.6,1008.1 1092.4,990.3 1071.1,1008.1 
	1080.7,982.1 1058,967.2 1085.2,968.5 "/>
<polygon class="st0" points="700.2,941.9 707,968.5 734.6,967.2 711.3,982.1 721.5,1008.1 700.3,990.3 679,1008.1 688.6,982.1 
	665.8,967.2 693,968.5 "/>
<polygon class="st0" points="1387.2,828.4 1394,855 1421.6,853.7 1398.3,868.6 1408.5,894.5 1387.3,876.8 1366,894.5 1375.6,868.6 
	1352.8,853.7 1380,855 "/>
<polygon class="st0" points="1582.5,828.4 1589.3,855 1616.9,853.7 1593.6,868.6 1603.7,894.5 1582.6,876.8 1561.2,894.5 
	1570.9,868.6 1548.1,853.7 1575.3,855 "/>
<polygon class="st0" points="1191.2,828.4 1197.9,855 1225.5,853.7 1202.3,868.6 1212.4,894.5 1191.2,876.8 1169.9,894.5 
	1179.6,868.6 1156.8,853.7 1184,855 "/>
<polygon class="st0" points="995.1,828.4 1001.9,855 1029.5,853.7 1006.2,868.6 1016.3,894.5 995.2,876.8 973.9,894.5 983.5,868.6 
	960.7,853.7 987.9,855 "/>
<polygon class="st0" points="1485.2,941.9 1492,968.5 1519.6,967.2 1496.3,982.1 1506.5,1008.1 1485.3,990.3 1464,1008.1 
	1473.6,982.1 1450.9,967.2 1478.1,968.5 "/>
<polygon class="st0" points="1289.2,941.9 1296,968.5 1323.6,967.2 1300.3,982.1 1310.4,1008.1 1289.3,990.3 1267.9,1008.1 
	1277.6,982.1 1254.8,967.2 1282,968.5 "/>
<polygon class="st0" points="504.2,941.9 510.9,968.5 538.5,967.2 515.3,982.1 525.4,1008.1 504.2,990.3 482.9,1008.1 492.6,982.1 
	469.8,967.2 497,968.5 "/>
<polygon class="st0" points="210.9,828.4 217.6,855 245.2,853.7 222,868.6 232.1,894.5 211,876.8 189.6,894.5 199.3,868.6 
	176.5,853.7 203.7,855 "/>
<polygon class="st0" points="308.9,941.9 315.7,968.5 343.3,967.2 320,982.1 330.1,1008.1 309,990.3 287.6,1008.1 297.3,982.1 
	274.5,967.2 301.7,968.5 "/>
<polygon class="st0" points="112.8,941.9 119.6,968.5 147.2,967.2 123.9,982.1 134.1,1008.1 112.9,990.3 91.6,1008.1 101.2,982.1 
	78.5,967.2 105.7,968.5 "/>
<polygon class="st0" points="798.2,599 805,625.5 832.6,624.2 809.3,639.2 819.5,665.1 798.3,647.3 777,665.1 786.6,639.2 
	763.9,624.2 791.1,625.5 "/>
<polygon class="st0" points="602.2,599 609,625.5 636.6,624.2 613.3,639.2 623.4,665.1 602.3,647.3 580.9,665.1 590.6,639.2 
	567.8,624.2 595,625.5 "/>
<polygon class="st0" points="406.1,599 412.9,625.5 440.5,624.2 417.2,639.2 427.4,665.1 406.2,647.3 384.9,665.1 394.5,639.2 
	371.7,624.2 398.9,625.5 "/>
<polygon class="st0" points="896.3,712.5 903.1,739.1 930.7,737.8 907.4,752.7 917.5,778.6 896.4,760.9 875,778.6 884.7,752.7 
	861.9,737.8 889.1,739.1 "/>
<polygon class="st0" points="1092.3,712.5 1099.1,739.1 1126.7,737.8 1103.4,752.7 1113.6,778.6 1092.4,760.9 1071.1,778.6 
	1080.7,752.7 1058,737.8 1085.2,739.1 "/>
<polygon class="st0" points="700.2,712.5 707,739.1 734.6,737.8 711.3,752.7 721.5,778.6 700.3,760.9 679,778.6 688.6,752.7 
	665.8,737.8 693,739.1 "/>
<polygon class="st0" points="1387.2,599 1394,625.5 1421.6,624.2 1398.3,639.2 1408.5,665.1 1387.3,647.3 1366,665.1 1375.6,639.2 
	1352.8,624.2 1380,625.5 "/>
<polygon class="st0" points="1582.5,599 1589.3,625.5 1616.9,624.2 1593.6,639.2 1603.7,665.1 1582.6,647.3 1561.2,665.1 
	1570.9,639.2 1548.1,624.2 1575.3,625.5 "/>
<polygon class="st0" points="1191.2,599 1197.9,625.5 1225.5,624.2 1202.3,639.2 1212.4,665.1 1191.2,647.3 1169.9,665.1 
	1179.6,639.2 1156.8,624.2 1184,625.5 "/>
<polygon class="st0" points="995.1,599 1001.9,625.5 1029.5,624.2 1006.2,639.2 1016.3,665.1 995.2,647.3 973.9,665.1 983.5,639.2 
	960.7,624.2 987.9,625.5 "/>
<polygon class="st0" points="1485.2,712.5 1492,739.1 1519.6,737.8 1496.3,752.7 1506.5,778.6 1485.3,760.9 1464,778.6 
	1473.6,752.7 1450.9,737.8 1478.1,739.1 "/>
<polygon class="st0" points="1289.2,712.5 1296,739.1 1323.6,737.8 1300.3,752.7 1310.4,778.6 1289.3,760.9 1267.9,778.6 
	1277.6,752.7 1254.8,737.8 1282,739.1 "/>
<polygon class="st0" points="504.2,712.5 510.9,739.1 538.5,737.8 515.3,752.7 525.4,778.6 504.2,760.9 482.9,778.6 492.6,752.7 
	469.8,737.8 497,739.1 "/>
<polygon class="st0" points="210.9,599 217.6,625.5 245.2,624.2 222,639.2 232.1,665.1 211,647.3 189.6,665.1 199.3,639.2 
	176.5,624.2 203.7,625.5 "/>
<polygon class="st0" points="308.9,712.5 315.7,739.1 343.3,737.8 320,752.7 330.1,778.6 309,760.9 287.6,778.6 297.3,752.7 
	274.5,737.8 301.7,739.1 "/>
<polygon class="st0" points="112.8,712.5 119.6,739.1 147.2,737.8 123.9,752.7 134.1,778.6 112.9,760.9 91.6,778.6 101.2,752.7 
	78.5,737.8 105.7,739.1 "/>
<polygon class="st0" points="798.2,370.5 805,397.1 832.6,395.8 809.3,410.7 819.5,436.7 798.3,418.9 777,436.7 786.6,410.7 
	763.9,395.8 791.1,397.1 "/>
<polygon class="st0" points="602.2,370.5 609,397.1 636.6,395.8 613.3,410.7 623.4,436.7 602.3,418.9 580.9,436.7 590.6,410.7 
	567.8,395.8 595,397.1 "/>
<polygon class="st0" points="406.1,370.5 412.9,397.1 440.5,395.8 417.2,410.7 427.4,436.7 406.2,418.9 384.9,436.7 394.5,410.7 
	371.7,395.8 398.9,397.1 "/>
<polygon class="st0" points="896.3,484.1 903.1,510.6 930.7,509.3 907.4,524.2 917.5,550.2 896.4,532.4 875,550.2 884.7,524.2 
	861.9,509.3 889.1,510.6 "/>
<polygon class="st0" points="1092.3,484.1 1099.1,510.6 1126.7,509.3 1103.4,524.2 1113.6,550.2 1092.4,532.4 1071.1,550.2 
	1080.7,524.2 1058,509.3 1085.2,510.6 "/>
<polygon class="st0" points="700.2,484.1 707,510.6 734.6,509.3 711.3,524.2 721.5,550.2 700.3,532.4 679,550.2 688.6,524.2 
	665.8,509.3 693,510.6 "/>
<polygon class="st0" points="1387.2,370.5 1394,397.1 1421.6,395.8 1398.3,410.7 1408.5,436.7 1387.3,418.9 1366,436.7 
	1375.6,410.7 1352.8,395.8 1380,397.1 "/>
<polygon class="st0" points="1582.5,370.5 1589.3,397.1 1616.9,395.8 1593.6,410.7 1603.7,436.7 1582.6,418.9 1561.2,436.7 
	1570.9,410.7 1548.1,395.8 1575.3,397.1 "/>
<polygon class="st0" points="1191.2,370.5 1197.9,397.1 1225.5,395.8 1202.3,410.7 1212.4,436.7 1191.2,418.9 1169.9,436.7 
	1179.6,410.7 1156.8,395.8 1184,397.1 "/>
<polygon class="st0" points="995.1,370.5 1001.9,397.1 1029.5,395.8 1006.2,410.7 1016.3,436.7 995.2,418.9 973.9,436.7 
	983.5,410.7 960.7,395.8 987.9,397.1 "/>
<polygon class="st0" points="1485.2,484.1 1492,510.6 1519.6,509.3 1496.3,524.2 1506.5,550.2 1485.3,532.4 1464,550.2 
	1473.6,524.2 1450.9,509.3 1478.1,510.6 "/>
<polygon class="st0" points="1289.2,484.1 1296,510.6 1323.6,509.3 1300.3,524.2 1310.4,550.2 1289.3,532.4 1267.9,550.2 
	1277.6,524.2 1254.8,509.3 1282,510.6 "/>
<polygon class="st0" points="504.2,484.1 510.9,510.6 538.5,509.3 515.3,524.2 525.4,550.2 504.2,532.4 482.9,550.2 492.6,524.2 
	469.8,509.3 497,510.6 "/>
<polygon class="st0" points="210.9,370.5 217.6,397.1 245.2,395.8 222,410.7 232.1,436.7 211,418.9 189.6,436.7 199.3,410.7 
	176.5,395.8 203.7,397.1 "/>
<polygon class="st0" points="308.9,484.1 315.7,510.6 343.3,509.3 320,524.2 330.1,550.2 309,532.4 287.6,550.2 297.3,524.2 
	274.5,509.3 301.7,510.6 "/>
<polygon class="st0" points="112.8,484.1 119.6,510.6 147.2,509.3 123.9,524.2 134.1,550.2 112.9,532.4 91.6,550.2 101.2,524.2 
	78.5,509.3 105.7,510.6 "/>
<polygon class="st0" points="798.2,141.1 805,167.7 832.6,166.4 809.3,181.3 819.5,207.2 798.3,189.4 777,207.2 786.6,181.3 
	763.9,166.4 791.1,167.7 "/>
<polygon class="st0" points="602.2,141.1 609,167.7 636.6,166.4 613.3,181.3 623.4,207.2 602.3,189.4 580.9,207.2 590.6,181.3 
	567.8,166.4 595,167.7 "/>
<polygon class="st0" points="406.1,141.1 412.9,167.7 440.5,166.4 417.2,181.3 427.4,207.2 406.2,189.4 384.9,207.2 394.5,181.3 
	371.7,166.4 398.9,167.7 "/>
<polygon class="st0" points="896.3,254.6 903.1,281.2 930.7,279.9 907.4,294.8 917.5,320.7 896.4,303 875,320.7 884.7,294.8 
	861.9,279.9 889.1,281.2 "/>
<polygon class="st0" points="1092.3,254.6 1099.1,281.2 1126.7,279.9 1103.4,294.8 1113.6,320.7 1092.4,303 1071.1,320.7 
	1080.7,294.8 1058,279.9 1085.2,281.2 "/>
<polygon class="st0" points="700.2,254.6 707,281.2 734.6,279.9 711.3,294.8 721.5,320.7 700.3,303 679,320.7 688.6,294.8 
	665.8,279.9 693,281.2 "/>
<polygon class="st0" points="1387.2,141.1 1394,167.7 1421.6,166.4 1398.3,181.3 1408.5,207.2 1387.3,189.4 1366,207.2 
	1375.6,181.3 1352.8,166.4 1380,167.7 "/>
<polygon class="st0" points="1582.5,141.1 1589.3,167.7 1616.9,166.4 1593.6,181.3 1603.7,207.2 1582.6,189.4 1561.2,207.2 
	1570.9,181.3 1548.1,166.4 1575.3,167.7 "/>
<polygon class="st0" points="1191.2,141.1 1197.9,167.7 1225.5,166.4 1202.3,181.3 1212.4,207.2 1191.2,189.4 1169.9,207.2 
	1179.6,181.3 1156.8,166.4 1184,167.7 "/>
<polygon class="st0" points="995.1,141.1 1001.9,167.7 1029.5,166.4 1006.2,181.3 1016.3,207.2 995.2,189.4 973.9,207.2 
	983.5,181.3 960.7,166.4 987.9,167.7 "/>
<polygon class="st0" points="1485.2,254.6 1492,281.2 1519.6,279.9 1496.3,294.8 1506.5,320.7 1485.3,303 1464,320.7 1473.6,294.8 
	1450.9,279.9 1478.1,281.2 "/>
<polygon class="st0" points="1289.2,254.6 1296,281.2 1323.6,279.9 1300.3,294.8 1310.4,320.7 1289.3,303 1267.9,320.7 
	1277.6,294.8 1254.8,279.9 1282,281.2 "/>
<polygon class="st0" points="504.2,254.6 510.9,281.2 538.5,279.9 515.3,294.8 525.4,320.7 504.2,303 482.9,320.7 492.6,294.8 
	469.8,279.9 497,281.2 "/>
<polygon class="st0" points="210.9,141.1 217.6,167.7 245.2,166.4 222,181.3 232.1,207.2 211,189.4 189.6,207.2 199.3,181.3 
	176.5,166.4 203.7,167.7 "/>
<polygon class="st0" points="308.9,254.6 315.7,281.2 343.3,279.9 320,294.8 330.1,320.7 309,303 287.6,320.7 297.3,294.8 
	274.5,279.9 301.7,281.2 "/>
<polygon class="st0" points="112.8,254.6 119.6,281.2 147.2,279.9 123.9,294.8 134.1,320.7 112.9,303 91.6,320.7 101.2,294.8 
	78.5,279.9 105.7,281.2 "/>
<polygon class="st0" points="2370.2,828.4 2377,855 2404.6,853.7 2381.3,868.6 2391.5,894.5 2370.3,876.8 2349,894.5 2358.6,868.6 
	2335.9,853.7 2363.1,855 "/>
<polygon class="st0" points="2174.2,828.4 2181,855 2208.6,853.7 2185.3,868.6 2195.4,894.5 2174.3,876.8 2152.9,894.5 
	2162.6,868.6 2139.8,853.7 2167,855 "/>
<polygon class="st0" points="1978.1,828.4 1984.9,855 2012.5,853.7 1989.2,868.6 1999.4,894.5 1978.2,876.8 1956.9,894.5 
	1966.5,868.6 1943.7,853.7 1970.9,855 "/>
<polygon class="st0" points="2468.3,941.9 2475.1,968.5 2502.7,967.2 2479.4,982.1 2489.5,1008.1 2468.4,990.3 2447,1008.1 
	2456.7,982.1 2433.9,967.2 2461.1,968.5 "/>
<polygon class="st0" points="2664.3,941.9 2671.1,968.5 2698.7,967.2 2675.4,982.1 2685.6,1008.1 2664.4,990.3 2643.1,1008.1 
	2652.7,982.1 2629.9,967.2 2657.2,968.5 "/>
<polygon class="st0" points="2272.2,941.9 2279,968.5 2306.6,967.2 2283.3,982.1 2293.5,1008.1 2272.3,990.3 2251,1008.1 
	2260.6,982.1 2237.8,967.2 2265,968.5 "/>
<polygon class="st0" points="2959.2,828.4 2966,855 2993.6,853.7 2970.3,868.6 2980.5,894.5 2959.3,876.8 2938,894.5 2947.6,868.6 
	2924.8,853.7 2952,855 "/>
<polygon class="st0" points="3154.5,828.4 3161.3,855 3188.9,853.7 3165.6,868.6 3175.7,894.5 3154.6,876.8 3133.2,894.5 
	3142.9,868.6 3120.1,853.7 3147.3,855 "/>
<polygon class="st0" points="2763.2,828.4 2769.9,855 2797.5,853.7 2774.3,868.6 2784.4,894.5 2763.2,876.8 2741.9,894.5 
	2751.6,868.6 2728.8,853.7 2756,855 "/>
<polygon class="st0" points="2567.1,828.4 2573.9,855 2601.5,853.7 2578.2,868.6 2588.3,894.5 2567.2,876.8 2545.8,894.5 
	2555.5,868.6 2532.7,853.7 2559.9,855 "/>
<polygon class="st0" points="3057.2,941.9 3064,968.5 3091.6,967.2 3068.3,982.1 3078.5,1008.1 3057.3,990.3 3036,1008.1 
	3045.6,982.1 3022.9,967.2 3050.1,968.5 "/>
<polygon class="st0" points="2861.2,941.9 2868,968.5 2895.6,967.2 2872.3,982.1 2882.4,1008.1 2861.3,990.3 2839.9,1008.1 
	2849.6,982.1 2826.8,967.2 2854,968.5 "/>
<polygon class="st0" points="2076.1,941.9 2082.9,968.5 2110.5,967.2 2087.2,982.1 2097.4,1008.1 2076.2,990.3 2054.9,1008.1 
	2064.5,982.1 2041.8,967.2 2069,968.5 "/>
<polygon class="st0" points="1782.9,828.4 1789.6,855 1817.2,853.7 1794,868.6 1804.1,894.5 1782.9,876.8 1761.6,894.5 
	1771.3,868.6 1748.5,853.7 1775.7,855 "/>
<polygon class="st0" points="1880.9,941.9 1887.7,968.5 1915.3,967.2 1892,982.1 1902.1,1008.1 1881,990.3 1859.6,1008.1 
	1869.3,982.1 1846.5,967.2 1873.7,968.5 "/>
<polygon class="st0" points="1684.8,941.9 1691.6,968.5 1719.2,967.2 1695.9,982.1 1706.1,1008.1 1684.9,990.3 1663.6,1008.1 
	1673.2,982.1 1650.4,967.2 1677.7,968.5 "/>
<polygon class="st0" points="2370.2,599 2377,625.5 2404.6,624.2 2381.3,639.2 2391.5,665.1 2370.3,647.3 2349,665.1 2358.6,639.2 
	2335.9,624.2 2363.1,625.5 "/>
<polygon class="st0" points="2174.2,599 2181,625.5 2208.6,624.2 2185.3,639.2 2195.4,665.1 2174.3,647.3 2152.9,665.1 
	2162.6,639.2 2139.8,624.2 2167,625.5 "/>
<polygon class="st0" points="1978.1,599 1984.9,625.5 2012.5,624.2 1989.2,639.2 1999.4,665.1 1978.2,647.3 1956.9,665.1 
	1966.5,639.2 1943.7,624.2 1970.9,625.5 "/>
<polygon class="st0" points="2468.3,712.5 2475.1,739.1 2502.7,737.8 2479.4,752.7 2489.5,778.6 2468.4,760.9 2447,778.6 
	2456.7,752.7 2433.9,737.8 2461.1,739.1 "/>
<polygon class="st0" points="2664.3,712.5 2671.1,739.1 2698.7,737.8 2675.4,752.7 2685.6,778.6 2664.4,760.9 2643.1,778.6 
	2652.7,752.7 2629.9,737.8 2657.2,739.1 "/>
<polygon class="st0" points="2272.2,712.5 2279,739.1 2306.6,737.8 2283.3,752.7 2293.5,778.6 2272.3,760.9 2251,778.6 
	2260.6,752.7 2237.8,737.8 2265,739.1 "/>
<polygon class="st0" points="2959.2,599 2966,625.5 2993.6,624.2 2970.3,639.2 2980.5,665.1 2959.3,647.3 2938,665.1 2947.6,639.2 
	2924.8,624.2 2952,625.5 "/>
<polygon class="st0" points="3154.5,599 3161.3,625.5 3188.9,624.2 3165.6,639.2 3175.7,665.1 3154.6,647.3 3133.2,665.1 
	3142.9,639.2 3120.1,624.2 3147.3,625.5 "/>
<polygon class="st0" points="2763.2,599 2769.9,625.5 2797.5,624.2 2774.3,639.2 2784.4,665.1 2763.2,647.3 2741.9,665.1 
	2751.6,639.2 2728.8,624.2 2756,625.5 "/>
<polygon class="st0" points="2567.1,599 2573.9,625.5 2601.5,624.2 2578.2,639.2 2588.3,665.1 2567.2,647.3 2545.8,665.1 
	2555.5,639.2 2532.7,624.2 2559.9,625.5 "/>
<polygon class="st0" points="3057.2,712.5 3064,739.1 3091.6,737.8 3068.3,752.7 3078.5,778.6 3057.3,760.9 3036,778.6 
	3045.6,752.7 3022.9,737.8 3050.1,739.1 "/>
<polygon class="st0" points="2861.2,712.5 2868,739.1 2895.6,737.8 2872.3,752.7 2882.4,778.6 2861.3,760.9 2839.9,778.6 
	2849.6,752.7 2826.8,737.8 2854,739.1 "/>
<polygon class="st0" points="2076.1,712.5 2082.9,739.1 2110.5,737.8 2087.2,752.7 2097.4,778.6 2076.2,760.9 2054.9,778.6 
	2064.5,752.7 2041.8,737.8 2069,739.1 "/>
<polygon class="st0" points="1782.9,599 1789.6,625.5 1817.2,624.2 1794,639.2 1804.1,665.1 1782.9,647.3 1761.6,665.1 
	1771.3,639.2 1748.5,624.2 1775.7,625.5 "/>
<polygon class="st0" points="1880.9,712.5 1887.7,739.1 1915.3,737.8 1892,752.7 1902.1,778.6 1881,760.9 1859.6,778.6 
	1869.3,752.7 1846.5,737.8 1873.7,739.1 "/>
<polygon class="st0" points="1684.8,712.5 1691.6,739.1 1719.2,737.8 1695.9,752.7 1706.1,778.6 1684.9,760.9 1663.6,778.6 
	1673.2,752.7 1650.4,737.8 1677.7,739.1 "/>
<polygon class="st0" points="2370.2,370.5 2377,397.1 2404.6,395.8 2381.3,410.7 2391.5,436.7 2370.3,418.9 2349,436.7 
	2358.6,410.7 2335.9,395.8 2363.1,397.1 "/>
<polygon class="st0" points="2174.2,370.5 2181,397.1 2208.6,395.8 2185.3,410.7 2195.4,436.7 2174.3,418.9 2152.9,436.7 
	2162.6,410.7 2139.8,395.8 2167,397.1 "/>
<polygon class="st0" points="1978.1,370.5 1984.9,397.1 2012.5,395.8 1989.2,410.7 1999.4,436.7 1978.2,418.9 1956.9,436.7 
	1966.5,410.7 1943.7,395.8 1970.9,397.1 "/>
<polygon class="st0" points="2468.3,484.1 2475.1,510.6 2502.7,509.3 2479.4,524.2 2489.5,550.2 2468.4,532.4 2447,550.2 
	2456.7,524.2 2433.9,509.3 2461.1,510.6 "/>
<polygon class="st0" points="2664.3,484.1 2671.1,510.6 2698.7,509.3 2675.4,524.2 2685.6,550.2 2664.4,532.4 2643.1,550.2 
	2652.7,524.2 2629.9,509.3 2657.2,510.6 "/>
<polygon class="st0" points="2272.2,484.1 2279,510.6 2306.6,509.3 2283.3,524.2 2293.5,550.2 2272.3,532.4 2251,550.2 
	2260.6,524.2 2237.8,509.3 2265,510.6 "/>
<polygon class="st0" points="2959.2,370.5 2966,397.1 2993.6,395.8 2970.3,410.7 2980.5,436.7 2959.3,418.9 2938,436.7 
	2947.6,410.7 2924.8,395.8 2952,397.1 "/>
<polygon class="st0" points="3154.5,370.5 3161.3,397.1 3188.9,395.8 3165.6,410.7 3175.7,436.7 3154.6,418.9 3133.2,436.7 
	3142.9,410.7 3120.1,395.8 3147.3,397.1 "/>
<polygon class="st0" points="2763.2,370.5 2769.9,397.1 2797.5,395.8 2774.3,410.7 2784.4,436.7 2763.2,418.9 2741.9,436.7 
	2751.6,410.7 2728.8,395.8 2756,397.1 "/>
<polygon class="st0" points="2567.1,370.5 2573.9,397.1 2601.5,395.8 2578.2,410.7 2588.3,436.7 2567.2,418.9 2545.8,436.7 
	2555.5,410.7 2532.7,395.8 2559.9,397.1 "/>
<polygon class="st0" points="3057.2,484.1 3064,510.6 3091.6,509.3 3068.3,524.2 3078.5,550.2 3057.3,532.4 3036,550.2 
	3045.6,524.2 3022.9,509.3 3050.1,510.6 "/>
<polygon class="st0" points="2861.2,484.1 2868,510.6 2895.6,509.3 2872.3,524.2 2882.4,550.2 2861.3,532.4 2839.9,550.2 
	2849.6,524.2 2826.8,509.3 2854,510.6 "/>
<polygon class="st0" points="2076.1,484.1 2082.9,510.6 2110.5,509.3 2087.2,524.2 2097.4,550.2 2076.2,532.4 2054.9,550.2 
	2064.5,524.2 2041.8,509.3 2069,510.6 "/>
<polygon class="st0" points="1782.9,370.5 1789.6,397.1 1817.2,395.8 1794,410.7 1804.1,436.7 1782.9,418.9 1761.6,436.7 
	1771.3,410.7 1748.5,395.8 1775.7,397.1 "/>
<polygon class="st0" points="1880.9,484.1 1887.7,510.6 1915.3,509.3 1892,524.2 1902.1,550.2 1881,532.4 1859.6,550.2 
	1869.3,524.2 1846.5,509.3 1873.7,510.6 "/>
<polygon class="st0" points="1684.8,484.1 1691.6,510.6 1719.2,509.3 1695.9,524.2 1706.1,550.2 1684.9,532.4 1663.6,550.2 
	1673.2,524.2 1650.4,509.3 1677.7,510.6 "/>
<polygon class="st0" points="2370.2,141.1 2377,167.7 2404.6,166.4 2381.3,181.3 2391.5,207.2 2370.3,189.4 2349,207.2 
	2358.6,181.3 2335.9,166.4 2363.1,167.7 "/>
<polygon class="st0" points="2174.2,141.1 2181,167.7 2208.6,166.4 2185.3,181.3 2195.4,207.2 2174.3,189.4 2152.9,207.2 
	2162.6,181.3 2139.8,166.4 2167,167.7 "/>
<polygon class="st0" points="1978.1,141.1 1984.9,167.7 2012.5,166.4 1989.2,181.3 1999.4,207.2 1978.2,189.4 1956.9,207.2 
	1966.5,181.3 1943.7,166.4 1970.9,167.7 "/>
<polygon class="st0" points="2468.3,254.6 2475.1,281.2 2502.7,279.9 2479.4,294.8 2489.5,320.7 2468.4,303 2447,320.7 
	2456.7,294.8 2433.9,279.9 2461.1,281.2 "/>
<polygon class="st0" points="2664.3,254.6 2671.1,281.2 2698.7,279.9 2675.4,294.8 2685.6,320.7 2664.4,303 2643.1,320.7 
	2652.7,294.8 2629.9,279.9 2657.2,281.2 "/>
<polygon class="st0" points="2272.2,254.6 2279,281.2 2306.6,279.9 2283.3,294.8 2293.5,320.7 2272.3,303 2251,320.7 2260.6,294.8 
	2237.8,279.9 2265,281.2 "/>
<polygon class="st0" points="2959.2,141.1 2966,167.7 2993.6,166.4 2970.3,181.3 2980.5,207.2 2959.3,189.4 2938,207.2 
	2947.6,181.3 2924.8,166.4 2952,167.7 "/>
<polygon class="st0" points="3154.5,141.1 3161.3,167.7 3188.9,166.4 3165.6,181.3 3175.7,207.2 3154.6,189.4 3133.2,207.2 
	3142.9,181.3 3120.1,166.4 3147.3,167.7 "/>
<polygon class="st0" points="2763.2,141.1 2769.9,167.7 2797.5,166.4 2774.3,181.3 2784.4,207.2 2763.2,189.4 2741.9,207.2 
	2751.6,181.3 2728.8,166.4 2756,167.7 "/>
<polygon class="st0" points="2567.1,141.1 2573.9,167.7 2601.5,166.4 2578.2,181.3 2588.3,207.2 2567.2,189.4 2545.8,207.2 
	2555.5,181.3 2532.7,166.4 2559.9,167.7 "/>
<polygon class="st0" points="3057.2,254.6 3064,281.2 3091.6,279.9 3068.3,294.8 3078.5,320.7 3057.3,303 3036,320.7 3045.6,294.8 
	3022.9,279.9 3050.1,281.2 "/>
<polygon class="st0" points="2861.2,254.6 2868,281.2 2895.6,279.9 2872.3,294.8 2882.4,320.7 2861.3,303 2839.9,320.7 
	2849.6,294.8 2826.8,279.9 2854,281.2 "/>
<polygon class="st0" points="2076.1,254.6 2082.9,281.2 2110.5,279.9 2087.2,294.8 2097.4,320.7 2076.2,303 2054.9,320.7 
	2064.5,294.8 2041.8,279.9 2069,281.2 "/>
<polygon class="st0" points="1782.9,141.1 1789.6,167.7 1817.2,166.4 1794,181.3 1804.1,207.2 1782.9,189.4 1761.6,207.2 
	1771.3,181.3 1748.5,166.4 1775.7,167.7 "/>
<polygon class="st0" points="1880.9,254.6 1887.7,281.2 1915.3,279.9 1892,294.8 1902.1,320.7 1881,303 1859.6,320.7 1869.3,294.8 
	1846.5,279.9 1873.7,281.2 "/>
<polygon class="st0" points="1684.8,254.6 1691.6,281.2 1719.2,279.9 1695.9,294.8 1706.1,320.7 1684.9,303 1663.6,320.7 
	1673.2,294.8 1650.4,279.9 1677.7,281.2 "/>
</svg>
