<?xml version="1.0" encoding="utf-8"?>
<!-- Generator: Adobe Illustrator 26.5.0, SVG Export Plug-In . SVG Version: 6.00 Build 0)  -->
<svg version="1.1" id="Layer_1" xmlns="http://www.w3.org/2000/svg" xmlns:xlink="http://www.w3.org/1999/xlink" x="0px" y="0px"
	 viewBox="0 0 1061.2 178.4" style="enable-background:new 0 0 1061.2 178.4;" xml:space="preserve">
<style type="text/css">
	.st0{fill:#034BA5;}
	.st1{fill:#B90215;}
</style>
<polygon class="st0" points="732.5,84 737.6,104 758.4,103 740.9,114.2 748.5,133.8 732.6,120.4 716.5,133.8 723.8,114.2 706.6,103 
	727.1,104 "/>
<g>
	<path class="st1" d="M141.3,25.1l-5.9,33.5h-7.7c-2.8-15.8-6.1-23.6-20.8-23.6H100c-4.9,0-6.2,0.7-6.6,5.4l-6.8,38.7h14.1
		c9.7,0,13.5-3.2,18.3-15.4h7.7l-7.3,41.6h-7.7C111,93,108.4,89.8,98.7,89.8H84.6l-5.9,33.7c-1.5,8.7-0.9,9.9,11.4,10.2l-1.3,7.4
		H26.2l1.3-7.4c10.1-0.3,11.2-1.5,12.7-10.2l14.3-80.8c1.5-8.7,0.9-9.9-9.1-10.2l1.3-7.4H141.3z"/>
	<path class="st1" d="M179.7,62l1.4,1.2L170,126.2c-1.4,7.9-0.6,8.2,7.1,8.6l-1.1,6.3h-48.7l1.1-6.3c7.8-0.4,8.8-0.7,10.1-8.6
		l8.3-46.9c0.7-4.2,0.2-5.9-2.2-6.3l-4.2-0.7l1.1-6.3L179.7,62z M152.5,46c1.3-7.6,8.4-13.4,18.2-13.4c9.8,0,14.8,5.7,13.5,13.4
		c-1.3,7.6-8.4,13.4-18.2,13.4S151.2,53.6,152.5,46"/>
	<path class="st1" d="M230.8,74.6C238.3,68.3,245.7,62,254,62c6.5,0,11.2,4.3,9.6,13.2c-1.9,10.9-8.7,15.8-15.3,15.8
		c-3,0-5.7-1.3-7.8-3.2c-4.5-3.9-7.1-6-8.4-6c-1.1,0-1.9,1-2.3,3l-7.3,41.4c-1.4,7.9-0.6,8.2,9.7,8.6l-1.1,6.3h-51.3l1.1-6.3
		c7.8-0.4,8.8-0.7,10.1-8.6l8.3-46.9c0.7-4.2,0.2-5.9-2.2-6.3l-4.2-0.7l1.1-6.3l37.1-4L230.8,74.6z"/>
	<path class="st1" d="M260.5,111h7.2c3.5,11.8,9.4,23.4,19.9,23.4c4.6,0,9.2-2.4,10.1-7.5c1.2-6.6-4.9-10.5-13.7-14.2
		c-7.1-3-22-9.1-19.2-24.7c3-17.2,17.4-26,39.5-26c7.8,0,19.1,1.4,25.5,6l-3.8,21.6h-6.6c-2.5-12.9-9.3-19.1-15.9-19.1
		c-4.3,0-8.6,2.4-9.4,6.9c-0.9,5.3,3.1,7.8,15.1,13.2c13.2,5.9,20.9,12.5,18.4,26.6c-3.1,17.8-19,25.7-41.3,25.7
		c-7.8,0-21.2-1-27.7-6.8L260.5,111z"/>
	<path class="st1" d="M377.7,73.6l-7.3,41.5c-1.9,10.8,1.2,15.2,7.5,15.2c2.2,0,4.2-0.4,6.1-1l1,5.6c-9.4,5.2-17.2,7.9-26.1,7.9
		c-13.8,0-23.9-5.5-21.3-20.4l8.6-48.9h-7.8l1.7-9.9h8.6l21.9-18.3h11.9l-3.2,18.3h14.4l-1.8,9.9H377.7z"/>
	<path class="st0" d="M461.6,65.1c17.5,0,28.3,4.9,28.3,18.4c0,9.1-5.5,14.9-16.4,17.2v0.2c10.3,1.6,19.4,7.7,19.4,20
		c0,6-1.8,11.3-6.3,15c-4.7,3.8-12.3,6-25,6h-36.6v-4.2c7.9-0.3,8.8-0.9,8.8-6.5V75.9c0-5.7-0.9-6.2-8.8-6.5v-4.2H461.6z
		 M451.5,98.8h5.4c10.7,0,15-6.1,15-14.3c0-8.3-4-14.2-14-14.2c-4.4,0-6.4,0.3-6.4,4.1V98.8z M451.5,129.6c0,5.4,2.4,7.2,8,7.2
		c7.8,0,14-3.9,14-15.8c0-9.3-5.2-17.2-16.3-17.2h-5.7V129.6z"/>
	<path class="st0" d="M558,139.9c-3.7,1.4-10.7,3.3-16.4,3.3c-5.3,0-7.2-3-8.7-6.4c-3.9,2.5-8.8,6.4-15.9,6.4
		c-11.2,0-16.8-7.8-16.8-16.1c0-6.3,3-10.9,11.8-13.9c7.2-2.4,16.5-5.2,20.4-7.9v-5.9c0-6.3-3.2-8.2-6.4-8.2
		c-3.1,0-6.7,1.7-9.8,11.1c-0.9,2.7-2.1,4.4-4.6,4.4c-2.9,0-10-2-10-7c0-7.2,10-13.7,26.3-13.7c19.6,0,20.8,8.7,20.8,15.5v25.6
		c0,6.5,2.1,7.9,3.6,8.3c1.7,0.6,3.9,0.7,5.3,0.6L558,139.9z M532.5,111c-2.7,1.2-6.6,2.8-10,4.7c-3.3,1.9-5.1,4.4-5.1,9.7
		c0,5.9,3.9,9.3,8.2,9.3c3,0,6.7-1.6,6.9-7.5V111z"/>
	<path class="st0" d="M618.7,132.3c0,4.7,0.9,5.1,7.2,5.4v4.2h-29.9v-4.2l2.3-0.2c2.3-0.2,3.6-0.8,3.6-4.4v-28.2
		c-0.2-6.7-3.1-10.1-8.8-10.1c-4.7,0-7.7,2.6-9.1,5.4c-0.8,1.6-1.1,4.1-1.1,6.5v26.3c0,3.7,1.2,4.2,3.6,4.4l2.3,0.2v4.2H559v-4.2
		c6.3-0.3,7.2-0.8,7.2-5.4V99.7c0-4.4-0.9-5.4-2.7-5.7l-3.9-0.6v-4l21.9-3.2l1.4,7.7c7.3-4.3,12.5-7.7,19-7.7
		c11.4,0,16.6,6.7,16.8,17.1V132.3z"/>
	<path class="st0" d="M653,111.7h0.2l8-11.3c2.6-3.6,4.8-6.8,6.9-9.5c2-2.4,4.1-3.3,6.5-3.3h16.1v3.6c-9.3,2-16.1,6.9-22,12.5
		l-2.4,2.4c5.9,9.3,12.1,18,19.5,26.3c3.3,3.8,4.8,5.1,7.1,6v3.5h-10c-8.1,0-12.5-1.4-16.4-6.5c-5.1-6.8-9.5-14.3-13.3-21.6H653
		v18.5c0,4.7,0.9,5.1,7.2,5.4v4.2H629v-4.2c6.3-0.3,7.2-0.8,7.2-5.4V73c0-4.4-0.9-5.4-2.7-5.8l-3.9-0.7v-4l22.5-3l0.8,0.7V111.7z"/>
	<path class="st0" d="M800.5,131.4c0,4,0.8,5.7,4.3,5.9l6.3,0.4v4.2h-39.1v-4.2l6.3-0.4c3.6-0.2,4.3-1.9,4.3-5.9V70.2h-4.4
		c-10.2,0-11.7,4.7-15.4,15.8h-4.2V65.1h65.9V86h-4.2c-3.8-11.1-5.2-15.8-15.4-15.8h-4.4V131.4z"/>
	<path class="st0" d="M872.5,127.1c-3.8,9.8-11,16.2-24.2,16.2c-20.6,0.1-27.2-13.4-27.2-28.5c0-15.5,7.4-28.5,27.4-28.5
		c21.4,0,24.9,14,24.9,23.1c0,3.6-2,4.7-6,4.7h-28.6c0,11.7,3.8,20.8,14.9,20.8c6.8,0,11.5-3.5,14.9-9.9L872.5,127.1z M852.5,108.6
		c2.5,0,3.4-0.7,3.4-3.7c0-5.2-1.1-13.7-7.9-13.7c-7.2,0-9.3,9.3-9.3,17.3H852.5z"/>
	<path class="st0" d="M905.1,141.9v-4.2l2.4-0.3c1.9-0.2,2.7-1.2,1.4-3.1l-8.1-12.4h-0.2l-7.7,12c-1.3,2-0.9,3.1,0.9,3.3l3.9,0.6
		v4.2h-24.5v-4.2c5.8-0.7,7.8-1.4,11.3-5.4c4.3-4.9,8.3-10.1,12.7-15.5c-5.6-7.4-10.2-14.8-14.8-20.9c-2.2-3-3.3-3.5-8.2-4.1v-4.2
		h28.9v4.2l-2.6,0.4c-1.3,0.2-1.4,1.2-0.7,2.3l6.9,10.5h0.2l6.7-9.9c1.3-1.9,1-2.9-0.6-3.1l-2.9-0.3v-4.2h22v4.2
		c-4.5,0.1-6.9,1.2-9.5,3.9c-3.9,4-8,8.5-12.2,14.2c5.2,7.7,10.4,15.2,15.8,22.4c3.2,4.1,5,5.1,9.8,5.4v4.2H905.1z"/>
	<path class="st0" d="M995.1,139.9c-3.7,1.4-10.7,3.3-16.4,3.3c-5.3,0-7.2-3-8.7-6.4c-3.9,2.5-8.8,6.4-15.9,6.4
		c-11.2,0-16.8-7.8-16.8-16.1c0-6.3,3-10.9,11.8-13.9c7.2-2.4,16.5-5.2,20.4-7.9v-5.9c0-6.3-3.2-8.2-6.4-8.2
		c-3.1,0-6.7,1.7-9.8,11.1c-0.9,2.7-2.1,4.4-4.5,4.4c-2.9,0-10-2-10-7c0-7.2,10-13.7,26.3-13.7c19.6,0,20.8,8.7,20.8,15.5v25.6
		c0,6.5,2.1,7.9,3.6,8.3c1.7,0.6,3.9,0.7,5.3,0.6L995.1,139.9z M969.6,111c-2.7,1.2-6.5,2.8-10,4.7c-3.3,1.9-5.1,4.4-5.1,9.7
		c0,5.9,3.9,9.3,8.2,9.3c3,0,6.7-1.6,6.9-7.5V111z"/>
	<path class="st0" d="M997.5,121.4h4.2c2.9,9.1,8.8,16.8,16.1,16.8c4.9,0,7.7-2.6,7.7-6.8c0-5.3-5.4-8.5-11.1-10.5
		c-9.8-3.7-16.3-9-16.3-17.1c0-11.2,8.4-17.5,22-17.5c5.8,0,12.1,1.1,16.6,3.9v14.8h-4.1c-2.1-8.4-6.9-13.5-12.5-13.5
		c-4.5,0-7,3-7,6.4c0,4.4,4.8,7.1,11.2,9.4c10.2,3.9,16.2,8.4,16.2,18c0,12-9.3,18.1-22.9,18.1c-6.2,0-14.5-1.4-18.8-5.3
		L997.5,121.4z"/>
</g>
</svg>
