<?xml version="1.0" encoding="UTF-8"?><svg id="Layer_2" xmlns="http://www.w3.org/2000/svg" viewBox="0 0 89.470876 112.662753"><defs><style>.cls-1{stroke-width:3.5px;}.cls-1,.cls-2,.cls-3{fill:none;}.cls-1,.cls-3{stroke:#034ba6;}.cls-2{stroke:#cb9d08;stroke-width:4px;}.cls-3{stroke-width:3.25px;}</style></defs><g id="Icons"><g><g><path class="cls-3" d="M49.664839,16.720871c1.09106,0,6.749071-10.318865,7.997396-11.956918,.432678-.56782,.518604-.699916,.19109-1.10518-.343064-.423701-1.070072-.308598-1.88445-.072621-1.520371,.44422-3.396004,.017634-5.513398-.594592-4.238128-1.22349-10.35221-2.932239-12.812321,1.5385-.237914,.433159-.073595,.111576,.399801,.635631,1.290179,1.429809,6.721498,11.55518,7.829404,11.55518h3.792478Z"/><path class="cls-3" d="M24.275814,43.433407c0-.01042,.000654-.02068,.000654-.0311,0-.004168-.000654-.008496-.000654-.012665v.043765Zm47.621511-6.984407c-1.35783-5.804041-4.232824-11.88558-17.086519-19.675387-4.197583-2.543807-9.56606-1.935268-12.215191-.518284-13.200767,7.060715-16.117776,14.38963-17.476247,20.193831-.358935,1.534332-.839386,4.095292-.8429,6.953147,.006881,13.597375,10.786478,24.617919,24.083912,24.617919,13.301442,0,24.08458-11.027598,24.08458-24.630584,0-3.038525-.187256-5.4007-.547634-6.940642Z"/><g><path class="cls-2" d="M43.589072,46.834996h0c0,1.77079,1.435407,3.20621,3.20621,3.20621h3.20621c1.770776,0,3.20621-1.43542,3.20621-3.20621v-.895334c0-1.379953-.883164-2.605206-2.192259-3.041571l-5.234137-1.744819c-1.309095-.436365-2.192233-1.661618-2.192233-3.041571v-.895334c0-1.77079,1.435407-3.20621,3.20621-3.20621h3.20621c1.770776,0,3.20621,1.43542,3.20621,3.20621h0"/><line class="cls-2" x1="48.398386" y1="34.010157" x2="48.398386" y2="29.200843"/><line class="cls-2" x1="48.398386" y1="50.041206" x2="48.398386" y2="54.85052"/></g></g><g><path class="cls-1" d="M72.849496,75.812906l2.717516-5.061718c-.081894-.03549-.156587-.069569-.241823-.097858l-1.964503-.634441c-3.259965-1.056461-6.613036,1.300066-8.215436,4.388817l-5.892988,8.992283"/><path class="cls-1" d="M22.019967,101.295458h12.69632l31.799714-11.736008,20.373019-13.935057c-.056576-.067416-.10699-.132679-.169729-.196532l-1.460588-1.452272c-2.425354-2.409391-6.48793-1.821354-9.324093,.208783l-12.11838,6.938906-4.768071,2.755976h-20.42269l.004752-.071723,12.663651,.028288c3.245413-.092809,5.801664-3.684807,5.708856-6.914999,0,0-.071054-.73163-.077959-.813525h-22.596718l-8.736724,7.634972h-3.571357"/><polyline class="cls-1" points="0 78.961129 16.801662 78.961129 16.801662 110.912753 8.122256 110.912753"/></g></g></g></svg>