<?xml version="1.0" encoding="UTF-8"?><svg id="Layer_2" xmlns="http://www.w3.org/2000/svg" viewBox="0 0 107.07 108.44"><defs><style>.cls-1{fill:#cb9d08;}.cls-2{stroke:#fff;}.cls-2,.cls-3{fill:none;stroke-width:4px;}.cls-3{stroke:#cb9d08;}</style></defs><g id="Icons"><g><g><path class="cls-2" d="M65.37,13.02C58.35,5.91,49.03,1.99,39.12,2c-9.93,0-19.27,3.93-26.29,11.07C5.85,20.19,2,29.63,2,39.63c0,20.74,16.67,37.63,37.14,37.61,9.94,0,19.28-3.94,26.3-11.09,6.99-7.11,10.83-16.54,10.83-26.54,0-10.04-3.87-19.49-10.89-26.6Z"/><path class="cls-3" d="M58.68,59.32c-5.23,5.32-12.17,8.24-19.54,8.24-15.21,.01-27.59-12.52-27.58-27.94,0-7.44,2.86-14.44,8.05-19.72,5.22-5.32,12.16-8.24,19.52-8.24,7.36,0,14.28,2.9,19.5,8.2,5.22,5.28,8.09,12.3,8.1,19.75,0,7.43-2.85,14.43-8.05,19.71Z"/><g><path class="cls-2" d="M104.34,93.45c3.16,7.72-4.47,15.45-12.09,12.25-9.75-9.88-14.94-15.14-24.69-25.02,4.03-4.08,8.06-8.17,12.09-12.25,9.75,9.88,14.94,15.14,24.69,25.02Z"/><line class="cls-3" x1="85.14" y1="76.78" x2="75.8" y2="86.24"/><line class="cls-2" x1="72.73" y1="73.67" x2="66.14" y2="66.99"/></g></g><path class="cls-1" d="M36.46,45.64l-.08-1.07c-.25-2.23,.49-4.66,2.56-7.14,1.86-2.19,2.89-3.8,2.89-5.65,0-2.1-1.32-3.51-3.92-3.55-1.49,0-3.14,.5-4.17,1.28l-.99-2.6c1.36-.99,3.71-1.65,5.9-1.65,4.75,0,6.89,2.93,6.89,6.07,0,2.81-1.57,4.83-3.55,7.18-1.82,2.15-2.48,3.96-2.35,6.07l.04,1.07h-3.22Zm-.91,5.78c0-1.53,1.03-2.6,2.48-2.6s2.44,1.07,2.44,2.6c0,1.44-.95,2.56-2.48,2.56-1.44,0-2.43-1.12-2.43-2.56Z"/></g></g></svg>