<?xml version="1.0" encoding="UTF-8"?><svg id="Layer_2" xmlns="http://www.w3.org/2000/svg" viewBox="0 0 99.849213 110.582459"><defs><style>.cls-1,.cls-2{stroke:#cb9d08;stroke-width:3.5px;}.cls-1,.cls-3{fill:none;}.cls-2{fill:#fff;}.cls-4{fill:#ebedf0;}.cls-3{stroke:#fff;stroke-linecap:round;stroke-linejoin:round;stroke-width:3.25px;}</style></defs><g id="Icons"><g><g><circle class="cls-2" cx="49.924607" cy="20.40818" r="5.366623"/><polygon class="cls-3" points="92.85759 36.508049 92.85759 47.241295 90.174279 47.241295 79.441033 47.241295 76.757721 47.241295 76.757721 36.508049 92.85759 36.508049"/><polygon class="cls-3" points="92.85759 87.490967 92.85759 98.224213 76.757721 98.224213 76.757721 87.490967 79.441033 87.490967 90.174279 87.490967 92.85759 87.490967"/><rect class="cls-3" x="79.441033" y="47.241295" width="10.733246" height="40.249672"/><path class="cls-4" d="M51.266262,82.124344c-.402497,1.046491-.85866,2.092983-1.341656,3.139474v-3.139474h1.341656Z"/><polygon class="cls-3" points="23.091492 36.508049 23.091492 47.241295 20.40818 47.241295 9.674934 47.241295 6.991623 47.241295 6.991623 36.508049 23.091492 36.508049"/><polygon class="cls-3" points="23.091492 87.490967 23.091492 98.224213 17.724869 98.224213 6.696459 98.224213 6.562293 97.794883 6.562293 87.490967 9.674934 87.490967 15.041557 87.490967 20.40818 87.490967 23.091492 87.490967"/><polygon class="cls-3" points="20.40818 47.241295 20.40818 87.490967 15.041557 87.490967 9.674934 87.490967 9.674934 79.441033 9.674934 47.241295 20.40818 47.241295"/></g><g><path class="cls-1" d="M57.437879,59.396696c-.482996-1.153824-1.28799-2.173482-2.307648-2.871143-1.100158-.77816-2.41498-1.234323-3.863969-1.234323h-2.683311c-3.70297,0-6.708279,3.005309-6.708279,6.708279,0,1.851485,.751327,3.541971,1.958817,4.749461s2.897976,1.958817,4.749461,1.958817h2.683311c1.234323,0,2.361314,.321997,3.354139,.912326,2.012484,1.153824,3.354139,3.327306,3.354139,5.795953,0,1.851485-.751327,3.541971-1.958817,4.749461s-2.897976,1.958817-4.749461,1.958817h-2.683311c-2.549146,0-4.749461-1.422155-5.903285-3.488305"/><line class="cls-1" x1="49.924607" y1="55.29123" x2="49.924607" y2="49.924607"/><polyline class="cls-1" points="49.924607 87.490967 49.924607 85.263819 49.924607 82.124344"/><polygon class="cls-3" points="6.991623 36.508049 1.625 36.508049 32.590414 14.129232 49.924607 1.625 98.224213 36.508049 92.85759 36.508049 76.757721 36.508049 50.112438 36.508049 23.091492 36.508049 6.991623 36.508049"/><polygon class="cls-3" points="3.175056 108.957459 30.202267 108.957459 98.224213 108.957459 98.224213 98.224213 92.85759 98.224213 76.757721 98.224213 41.821006 98.224213 23.091492 98.224213 2.95362 98.224213 3.175056 108.957459"/></g></g></g></svg>