<?xml version="1.0" encoding="UTF-8"?><svg id="Layer_2" xmlns="http://www.w3.org/2000/svg" viewBox="0 0 84.76 111.13"><defs><style>.cls-1{stroke:#fff;}.cls-1,.cls-2,.cls-3{fill:none;stroke-width:4px;}.cls-2{stroke:#282d33;}.cls-3{stroke:#cb9d08;}</style></defs><g id="Icons"><g><path class="cls-1" d="M82.76,107.86c0,.7-.58,1.27-1.29,1.27H3.28c-.71,0-1.28-.57-1.28-1.27V3.27c0-.7,.57-1.27,1.28-1.27H81.48c.71,0,1.29,.57,1.29,1.27V107.86Z"/><rect class="cls-2" x="13.13" y="39.84" width="58.48" height="57.65"/><rect class="cls-3" x="13.06" y="13.76" width="58.64" height="16.05"/><rect class="cls-1" x="13.13" y="39.84" width="58.48" height="57.65"/><line class="cls-1" x1="42.51" y1="39.84" x2="42.51" y2="97.21"/><line class="cls-1" x1="71.61" y1="68.53" x2="13.41" y2="68.53"/><line class="cls-3" x1="34.95" y1="54.37" x2="19.84" y2="54.37"/><line class="cls-3" x1="27.4" y1="61.82" x2="27.4" y2="46.92"/><line class="cls-3" x1="64.81" y1="54.37" x2="49.69" y2="54.37"/><line class="cls-3" x1="32.74" y1="88.7" x2="22.05" y2="78.16"/><line class="cls-3" x1="22.05" y1="88.7" x2="32.74" y2="78.16"/><line class="cls-3" x1="64.81" y1="86.78" x2="49.69" y2="86.78"/><line class="cls-3" x1="64.81" y1="80.08" x2="49.69" y2="80.08"/></g></g></svg>